<svg xmlns="http://www.w3.org/2000/svg" width="242" height="245">
    <path fill-rule="evenodd" fill="#F6F6F6" d="M237.946 240.96c-2.688 2.701-6.207 4.16-9.733 4.16-3.522 0-7.045-1.459-9.733-4.16l-82.9-83.322 19.87-18.858 82.496 82.619c5.375 5.395 5.375 14.154 0 19.561zm-88.574-108.584-19.466 19.56-1.418 1.429-1.086 1.088-14.021-14.095-9.93-9.975L127.7 106.4l9.196 8.847 14.756 15.553-.862.146-1.418 1.43zM7.779 85.467c-3.286 1.34-6.264-.793-7.351-3.682-.287-.665-.028-1.6.272-2.427-.41-1.82.138-3.637 2.097-4.891a110.678 110.678 0 0 0 6.659-4.606c4.306-3.221 7.977-6.645 10.777-10.571 2.472-3.954 4.302-7.68 5.377-13.471.678-3.321 4.373-4.936 7.51-4.225 1.185.301 2.488.512 3.792.669.862.104 1.734.177 2.6.238.899.06 1.797.109 2.696.14l3.977-3.995c-.245-.685-.498-1.372-.811-2.038-.04-.081-.061-.165-.1-.246a7.433 7.433 0 0 1-.635-1.867 5.896 5.896 0 0 1 .221-3.032l1.501 1.304 1.52 2.113 1.521.531 10.969 9.528L80.59 62.42l-9.968-24.963-6.47-16.869-.792-2.058-.79-2.055-.309-.807A389.311 389.311 0 0 1 72.793 1.812C74.229.2 76.572.332 78.65.307c.679.211 1.305.549 1.887.957 1.443.394 1.046.859 1.44 1.402l.443-.063-.263.281c.318.489.57 1.013.698 1.594.025.112.06.226.09.342l38.565 95.112-23.989 24.498L7.779 85.467z"/>
</svg>
