<svg xmlns="http://www.w3.org/2000/svg" width="199" height="219">
    <path fill-rule="evenodd" fill="#F6F6F6" d="m195.94 45.631-10.999-2.114 6.004-12.35 8.045 8.19-3.05 6.274zm-40.835-14.435L129.21 54.528l-29.02-14.166 3.691-10.138-18.271-8.78s-9.745-5.658 3.177-9.331C96.431 9.939 123.869.744 123.869.744s5.62-2.099 11.662.851l53.158 25.965-7.873 16.195-25.711-12.559zM120.64 74.482s2.969 3.122.271 8.67c-1.968 4.049-5.529 2.121-7.731 6.982-1.539 2.834 2.172 5.814-.714 11.75-1.641 3.375-7.16 3.662-8.735 6.901-1.574 3.455-1.177 5.985-.241 7.753.936 2.462 13.496 17.282-.872 46.838-19.485 40.081-24.468 50.608-24.468 50.608s-2.438 6.891-7.272 4.53c-4.438-2.361-69.052-33.729-69.052-33.729s-4.32-3.113.403-12.83l21.65-44.535s19.475-41.089 63.819-69.029c6.139 2.751 32.942 16.091 32.942 16.091zM93.795 41.33l38.877 18.989-6.298 12.956-38.877-18.99 6.298-12.955zm81.834 3.899s-9.718 20.577-2.359 42.937c0 0 1.663 3.317-1.455 4.974-1.226.474-3.013.11-6.369-5.036-6.452-9.893-13.546-28.139-7.542-51.533l17.725 8.658z"/>
</svg>
