<svg xmlns="http://www.w3.org/2000/svg" width="170" height="255">
    <path fill-rule="evenodd" fill="#F6F6F6" d="m129.256 121.387 37.308 13.764-9.133 24.842L54.82 121.864l8.395-24.644 37.308 13.567L141.257.1l6.497 2.286 6.497 2.397 2.744 1.012 6.497 2.397 6.497 2.398-40.733 110.797zm18.41 133.605-32.192-11.877 7.243-45.52-13.246-4.887-7.242 45.52-21.7-8.005 15.601-42.437-12.994-4.794-15.601 42.436-21.798-8.042 23.667-39.46-13.228-4.466-23.668 39.046L.8 200.516l46.631-66.303 107.067 39.501-6.832 81.278z"/>
</svg>
