<svg xmlns="http://www.w3.org/2000/svg" width="258" height="273">
    <path fill-rule="evenodd" fill="#F6F6F6" d="M257.913 165.919c0 2.371-.714 3.181-3.094 4.742L112.48 269.54c-.237.237-4.998 4.268-11.9 3.32-1.905-.238-84.737-12.094-92.116-13.516-4.998-.949-5.712-5.928 0-8.774 13.856-7.113 79.025-41.021 125.915-64.733-2.909 2.608-3.571 9.484-3.571 9.484L17.51 253.416l87.116 13.041 140.91-97.693-53.793-4.979-20.947 10.67c-1.904-1.615-5.474-3.082-8.806-3.082h-.715c10.236-5.217 17.852-8.774 20.47-10.196 7.617-3.795 12.14-4.269 14.525-4.269h1.423c1.19 0 42.607 4.743 55.698 5.691 2.856.238 4.998 1.621 4.522 3.32zm-110.919 24.66c1.19-.948 19.756-10.67 20.708-11.144.476-.238.714-.238.714 0 .238.237.238.948.238 2.515v17.166l-22.85 14.464v-19.681c0-.475 0-2.371 1.19-3.32zm-15.472 25.609s10.473 3.083 10.949 3.32c.477.237 1.429.237 2.381-.237l27.134-17.073c.715-.237 1.19-1.068 1.19-1.897v-21.34l19.995-10.434 39.988 4.313-129.485 88.875-71.407-10.265 98.541-50.912-.951 12.568c0 1.434.475 2.608 1.665 3.082zm32.61-38.558c-.238-.329-18.566 9.155-20.232 10.104-2.142 1.185-2.619 5.69-2.619 6.165v20.629l-6.902-2.134s1.428-14.938 2.071-16.836c-.167-1.896.785-7.113 5.069-8.818.714-.903 17.376-9.914 18.328-10.388 3.333-1.423 4.047 0 4.285 1.278zm-26.659 1.331-2.618-3.557L1.86 8.472C.579 6.338.341 3.73 1.8 2.7 3.942.41 6.561.647 8.227 2.781l134.721 168.354 2.856 3.557 1.904 2.609c-2.856 1.66-5.713 3.082-8.093 4.268l-2.142-2.608z"/>
</svg>
