<svg xmlns="http://www.w3.org/2000/svg" width="193" height="303">
    <path fill-rule="evenodd" fill="#F6F6F6" d="m178.783 182.523-62.842 30.161-2.224 1.07-2.225 1.07L9.319 2.463C8.595.952 7.1.11 5.429.11c-.651 0-1.282.049-1.874.337l-1.114.54A4.289 4.289 0 0 0 .246 3.464C.132 4.559.64 5.733.439 6.774L102.587 219.95l-2.224.21-2.229 1.07-72.29 34.7c-9.744 4.588-2.214 17.342 1.866 24.774v19.819c0 1.368.466 2.577 1.827 2.577s2.763-1.209 2.763-2.577v-22.197l4.634-2.379v19.622c0 1.367 1.446 2.891 2.466 2.891 1.36 0 2.465-1.524 2.465-2.891v-22l4.931-2.379v19.528c0 2.132 1.105 2.477 2.466 2.477 1.361 0 2.465-.345 2.465-2.477v-21.906l4.931-2.378v19.329a2.472 2.472 0 0 0 2.466 2.477 2.472 2.472 0 0 0 2.466-2.477V264.56l4.93-2.883v19.131a2.473 2.473 0 0 0 2.466 2.478 2.473 2.473 0 0 0 2.466-2.478v-21.509l4.931-2.379v18.829a2.472 2.472 0 0 0 2.466 2.477 2.472 2.472 0 0 0 2.465-2.477v-21.207l4.931-2.378v18.938a2.473 2.473 0 0 0 2.466 2.477c2.009 0 2.466-1.11 2.466-2.477v-21.316l4.93-2.379v18.536a2.473 2.473 0 0 0 2.466 2.478c1.361 0 2.807-1.11 2.807-2.478V245.24l4.59-2.594v18.65c0 1.368 1.77 2.477 2.465 2.477a2.472 2.472 0 0 0 2.466-2.477v-21.029l4.931-2.378v18.041a2.472 2.472 0 0 0 2.465 2.477 2.472 2.472 0 0 0 2.466-2.477v-20.419l4.931-2.379v17.843a2.473 2.473 0 0 0 2.466 2.477 2.472 2.472 0 0 0 2.465-2.477v-20.221l4.932-2.378V246.2c0 1.187 1.104 2.297 2.663 2.297 1.163 0 2.268-1.11 2.268-2.297v-20.203l4.931-2.378v18.031c0 .782 1.104 1.893 2.465 1.893 1.362 0 2.466-1.111 2.466-1.893v-20.409l4.931-2.379v17.248a2.472 2.472 0 0 0 2.466 2.477 2.471 2.471 0 0 0 2.465-2.477v-19.626l4.932-2.378v17.05a2.472 2.472 0 0 0 2.465 2.477c1.361 0 3.141-1.11 3.141-2.477v-19.429l4.85-2.378V226.2c0 1.368.51 2.478 1.871 2.478a2.472 2.472 0 0 0 2.466-2.478v-19.229l4.931-2.379v16.654a2.473 2.473 0 0 0 2.466 2.477 2.472 2.472 0 0 0 2.465-2.477v-19.032l3.201-1.546c0-8.211-3.062-23.348-14.217-18.145z"/>
</svg>
