<svg xmlns="http://www.w3.org/2000/svg" width="251" height="236">
    <path fill-rule="evenodd" fill="#F6F6F6" d="M238.727 112.588c-4.067 5.18-10.154 8.322-15.874 10.248v-20.722c.716-.575 1.416-1.181 2.053-1.889 6.903-7.679 9.594-23.629 6.509-47.416-1.105-12.701-7.313-22.148-17.633-28.086-14.035-8.077-34.667-8.198-52.56-.315-16.645 7.332-29.361 24.175-37.305 37.52 4.207 2.379 5.934 7.609 3.807 12.02-1.597 3.319-4.916 5.254-8.375 5.254-.909 0-2.619-.287-3.876-.866L68.855 180.421c3.928 2.517 5.441 7.739 3.315 11.863-1.625 3.254-4.912 5.138-8.324 5.138-.859 0-1.718-.167-2.568-.322l-6.439 14.013h.872c5.126 0 9.286 4.147 9.286 9.258 0 5.11-4.16 9.257-9.286 9.257H9.285c-5.126 0-9.285-4.147-9.285-9.257 0-5.111 4.159-9.258 9.285-9.258h25.149l10.121-22.176-.307-.152c-4.591-2.278-6.462-7.832-3.588-12.41 1.644-4.494 7.047-6.125 11.584-4.267l44.987-98.516a92.42 92.42 0 0 1 1.556-3.625c-3.083-2.666-4.165-7.128-2.313-10.974 1.936-4.022 6.398-5.999 10.936-4.193 8.893-16.65 24.562-37.32 46.3-47.328 23.492-10.344 50.071-9.877 69.92 1.217 14.725 8.795 24.253 23.754 26.248 42.125 3.228 29.647-.417 49.855-11.151 61.774zm-47.992-21.82h18.186c5.589 0 4.643-.485 4.643 4.629v73.202c-5.159-2.397-10.888-3.772-16.947-3.772-22.238 0-40.335 18.038-40.335 40.583 0 8.892 3.189 17.409 8.491 24.218h-44.064c-5.13 0-9.285-6.457-9.285-11.068l8.77-56.186c13.668-67.244 65.411-71.606 70.541-71.606zm5.882 84.072c6.25 0 12.067 1.114 16.947 4.299a31.436 31.436 0 0 1 4.642 3.702 31.566 31.566 0 0 1 4.652 5.712c3.032 4.777 4.814 10.419 4.814 16.807 0 6.086-1.968 12.048-5.329 16.996-1.806 2.774-4.03 5.004-6.556 6.985-2.683 2.106-5.157 3.777-9.011 4.915a30.897 30.897 0 0 1-10.159 1.736c-3.047 0-6.968-.629-10.158-1.736a31.05 31.05 0 0 1-8.626-4.628c-7.437-5.656-12.266-13.968-12.266-24.218 0-17.44 13.928-30.57 31.05-30.57zm0 45.72c8.599 0 15.572-6.952 15.572-15.2 0-8.896-6.973-15.849-15.572-15.849-8.477 0-15.157 6.953-15.157 15.849 0 8.248 6.73 15.2 15.157 15.2z"/>
</svg>
